<svg viewBox="0 0 100 120" xmlns="http://www.w3.org/2000/svg">
  <!-- تدرج اللون البرتقالي حسب المواصفات -->
  <defs>
    <linearGradient id="orangeGradient" x1="0%" y1="0%" x2="0%" y2="100%">
      <stop offset="0%" style="stop-color:#f4a568;stop-opacity:1" />
      <stop offset="100%" style="stop-color:#ea9c57;stop-opacity:1" />
    </linearGradient>
    
    <!-- تدرج للظل -->
    <linearGradient id="shadowGradient" x1="0%" y1="0%" x2="0%" y2="100%">
      <stop offset="0%" style="stop-color:#d18a46;stop-opacity:0.8" />
      <stop offset="100%" style="stop-color:#c67b3d;stop-opacity:0.9" />
    </linearGradient>
  </defs>
  
  <!-- الظل -->
  <ellipse cx="50" cy="115" rx="15" ry="5" fill="#00000020"/>
  
  <!-- جسم الPin الرئيسي -->
  <path d="M50 10 C30 10, 15 25, 15 45 C15 65, 50 100, 50 100 S85 65, 85 45 C85 25, 70 10, 50 10 Z" 
        fill="url(#orangeGradient)" 
        stroke="#d18a46" 
        stroke-width="2"/>
  
  <!-- الدائرة الداخلية البيضاء -->
  <circle cx="50" cy="45" r="25" fill="#f8fbfd" stroke="#ea9c57" stroke-width="2"/>
  
  <!-- أيقونة المتجر -->
  <g transform="translate(50, 45)">
    <!-- مبنى المتجر -->
    <rect x="-12" y="-8" width="24" height="16" fill="#ea9c57" rx="2"/>
    <!-- باب المتجر -->
    <rect x="-3" y="-2" width="6" height="8" fill="#f8fbfd" rx="1"/>
    <!-- نافذة يسار -->
    <rect x="-10" y="-6" width="4" height="4" fill="#f8fbfd" rx="0.5"/>
    <!-- نافذة يمين -->
    <rect x="6" y="-6" width="4" height="4" fill="#f8fbfd" rx="0.5"/>
    <!-- السقف -->
    <polygon points="-14,-8 0,-15 14,-8" fill="#d18a46"/>
    <!-- مقبض الباب -->
    <circle cx="2" cy="2" r="0.8" fill="#ea9c57"/>
  </g>
  
  <!-- نقطة الإشارة -->
  <circle cx="50" cy="45" r="3" fill="#7ebfe9"/>
  
  <!-- تأثير الإضاءة -->
  <ellipse cx="42" cy="35" rx="8" ry="12" fill="#ffffff40"/>
</svg>